<?xml version="1.0" encoding="utf-8"?>
<!-- Generator: Adobe Illustrator 20.0.0, SVG Export Plug-In . SVG Version: 6.00 Build 0)  -->
<svg version="1.1" id="Layer_1" xmlns="http://www.w3.org/2000/svg" xmlns:xlink="http://www.w3.org/1999/xlink" x="0px" y="0px"
	 viewBox="0 0 64.1 17.5" style="enable-background:new 0 0 64.1 17.5;" xml:space="preserve">
<title>Asset 8</title>
<path id="Layer_2" d="M7.6,2.5C7.4,2.4,7,2.4,5.8,3.5C5.7,3.6,5.5,3.8,5.3,3.8S5.1,3.3,5.1,3.2C4.8,1.8,4.6,0.2,4,0H3.8
	C3.3,0.2,3,1.8,2.7,3.3c0,0.1-0.1,0.5-0.2,0.6C2.4,4,2.1,3.4,2,3.2c-0.7-1-1.5-1.8-1.8-1.6S0,1.9,0,2.1c0,0.8,0.2,1.5,0.3,2.2
	C0.5,5.2,1,5.2,1,5.2h5.9c0,0,0.5,0,0.7-1S7.8,3,7.8,3S7.8,2.6,7.6,2.5z M2.5,8.7c0-0.6-0.2-1-0.7-1C1.5,7.8,1.2,7.9,1,8.1L0.9,7.3
	C1.2,7,1.7,6.9,2.2,6.9c0.9,0,1.4,0.5,1.4,1.6c0.3-0.9,1.1-1.6,2.1-1.6c0.4-0.1,1,0.2,1.3,0.6L6.8,8.4C6.5,8,6,7.8,5.5,7.8
	c-1.2,0-1.7,1.1-2,2.3v4.6h-1V8.7z M11.4,6.8c2.2-0.1,4,1.6,4.1,3.7c0,0.1,0,0.2,0,0.3c0.1,2.1-1.6,3.9-3.8,4c-0.1,0-0.2,0-0.3,0
	c-2.1,0.1-3.9-1.6-4-3.8c0-0.1,0-0.1,0-0.2c-0.1-2.2,1.6-3.9,3.8-4C11.2,6.8,11.3,6.8,11.4,6.8z M11.4,14c1.7,0.1,3-1.2,3.1-2.9
	c0-0.1,0-0.1,0-0.2c0.1-1.7-1.2-3.1-2.9-3.1c-0.1,0-0.1,0-0.2,0c-1.7,0-3,1.3-3.1,2.9c0,0.1,0,0.1,0,0.2c0,1.7,1.3,3,2.9,3.1
	C11.3,14,11.3,14,11.4,14z M21.1,6.8c2.2-0.1,4,1.6,4.1,3.7c0,0.1,0,0.2,0,0.3c0.1,2.1-1.6,3.9-3.8,4c-0.1,0-0.2,0-0.3,0
	c-2.1,0.1-3.9-1.6-4-3.8c0-0.1,0-0.1,0-0.2c-0.1-2.2,1.6-3.9,3.8-4C20.9,6.8,21,6.8,21.1,6.8z M21.1,14c1.7,0.1,3-1.2,3.1-2.9
	c0-0.1,0-0.1,0-0.2c0-1.7-1.4-3.1-3.1-3.1S18,9.2,18,10.9s1.3,3,2.9,3.1C21,14,21,14,21.1,14z M32.3,8.4c-0.8-0.4-1.6-0.6-2.5-0.6
	c-1.2,0-2.1,0.6-2.1,1.4c0,0.7,0.5,0.9,1.4,1.1l1.7,0.4c1.2,0.3,1.9,0.8,1.9,1.9c0,1.3-1,2.3-2.9,2.3c-1,0-2-0.2-2.8-0.7l0.2-0.9
	c0.8,0.4,1.7,0.7,2.6,0.7c1.3,0,2-0.6,2-1.4s-0.6-0.9-1.4-1.1l-1.6-0.4c-1.2-0.3-1.9-0.8-1.9-1.9c0-1.4,1.2-2.3,3.2-2.3
	c0.9,0,1.8,0.2,2.7,0.6L32.3,8.4z M36.4,5.1V7h3.2v0.8h-3.2v4.5c0,1.1,0.5,1.6,1.4,1.6c0.6,0,1.3-0.2,1.8-0.6l0.3,0.8
	c-0.7,0.5-1.6,0.7-2.4,0.7c-1.1,0.1-2.1-0.7-2.2-1.8c0-0.2,0-0.3,0-0.5V7.9h-1.5V7h1.5l0.1-1.9H36.4z M48.4,13.8c-0.9,0.7-2,1-3.1,1
	c-2,0.2-3.9-1.3-4.1-3.3c0-0.2,0-0.5,0-0.7c-0.1-2.1,1.6-3.9,3.7-4c0.1,0,0.2,0,0.3,0c1.6-0.2,3.1,1,3.3,2.6c0,0.2,0,0.4,0,0.5
	c0,0.4,0,0.8-0.1,1.2h-6.2c0,1.6,1.3,2.8,2.8,2.8c0.1,0,0.2,0,0.3,0c1,0,1.9-0.3,2.7-0.9L48.4,13.8z M47.5,9.8
	c0-1.2-0.9-2.2-2.1-2.2c-0.1,0-0.2,0-0.3,0c-1.5-0.1-2.9,1.1-2.9,2.7c0,0,0,0,0,0.1h5.3C47.5,10.2,47.5,10.1,47.5,9.8L47.5,9.8z
	 M57.3,7l3,6.5L63.1,7h1l-3.5,8.1c-0.6,1.5-1.3,2.4-2.7,2.4c-0.6,0-1.2-0.2-1.7-0.5l0.2-0.8c0.4,0.3,1,0.5,1.5,0.5
	c1,0,1.4-0.5,1.8-1.5l0.2-0.6L56.2,7H57.3z M51.2,8.7c0-0.6-0.2-1-0.7-1c-0.3,0-0.6,0.1-0.8,0.3l-0.1-0.8c0.4-0.3,0.8-0.4,1.3-0.4
	c0.9,0,1.4,0.5,1.4,1.6c0.3-0.9,1.1-1.5,2.1-1.5c0.5-0.1,1.1,0.2,1.4,0.6l-0.2,0.9c-0.3-0.4-0.8-0.6-1.3-0.6c-1.2,0-1.7,1.1-2,2.3
	v4.6h-1L51.2,8.7z"/>
</svg>
