<?xml version="1.0" encoding="utf-8"?>
<!-- Generator: Adobe Illustrator 20.0.0, SVG Export Plug-In . SVG Version: 6.00 Build 0)  -->
<svg version="1.1" id="Layer_1" xmlns="http://www.w3.org/2000/svg" xmlns:xlink="http://www.w3.org/1999/xlink" x="0px" y="0px"
	 viewBox="0 0 47.3 21.4" style="enable-background:new 0 0 47.3 21.4;" xml:space="preserve">
<title>Asset 7</title>
<g id="Layer_2">
	<g id="Layer_1-2">
		<path d="M9.1,3.2C8.9,3.3,8.7,3.2,8.7,3C8.6,2.8,8.4,2.7,8.2,2.7c0,0,0,0,0,0C8.1,2.7,8,2.8,7.9,2.9c0,0.1,0,0.2,0,0.3
			c0.2,0.6,0.8,1,1.4,0.9c0.8-0.2,1.4-0.9,1.2-1.7c0-1.3-1-2.4-2.3-2.4c0,0-0.1,0-0.1,0C6.7,0,5.7,1.1,5.7,2.4
			c0.2,1.1,0.6,2.1,1.1,3c0.8,1.8,1.9,4,1.9,5.4c0,2.1-1.6,3.9-3.8,3.9c-0.1,0-0.1,0-0.2,0c-2.2,0-3.9-1.8-3.9-3.9
			C0.8,9.6,1.5,8.4,2.7,7.9c0.6-0.3,1.2-0.3,1.8,0C4.6,8,4.9,7.9,5,7.7c0.1-0.1,0.1-0.3,0-0.4C4.2,6.8,3.2,6.7,2.3,7.1
			C0.8,7.7-0.1,9.2,0,10.8c0,2.6,2.1,4.7,4.7,4.7c1.4,0,2.7-0.5,3.6-1.6c0.8-0.9,1.2-2,1.2-3.2c0-1.6-1.1-4-2-5.8L7.4,4.9
			C7,4.1,6.6,3.3,6.4,2.4c0-0.9,0.7-1.6,1.6-1.6c0,0,0,0,0,0c0.8,0,1.6,0.6,1.6,1.4c0,0,0,0,0,0.1C9.7,3,9.4,3.2,9.1,3.2z"/>
		<path d="M15.9,5.9c-1,0.1-2,0.5-2.7,1.3l0.2-0.8c0.1-0.2-0.1-0.4-0.3-0.5c0,0,0,0,0,0c-0.2,0-0.4,0.1-0.5,0.3l-1.1,4.1
			c-0.5,1.1-1.1,2.2-1.7,3.3C7.6,17.7,6.4,20,7,21c0.2,0.3,0.5,0.4,0.8,0.4c1.8,0,2.8-4.1,2.9-4.9l1-3.9c0.1,0.2,0.2,0.4,0.3,0.6
			c0.4,0.6,1.1,0.9,1.8,0.9c1.8,0,3.6-1.7,4.2-4c0.4-1.1,0.2-2.3-0.4-3.3C17.2,6.2,16.6,5.9,15.9,5.9z M10,16.3
			c-0.4,1.7-1.3,4.3-2.2,4.3c0,0-0.1,0-0.1,0c-0.4-0.6,1.5-4,2.8-6.6l0.1-0.3L10,16.3z M17.4,9.9c-0.5,1.8-2.1,3.4-3.4,3.4
			c-0.5,0-0.9-0.2-1.2-0.6c-0.5-0.8-0.6-1.7-0.3-2.6c0.5-1.8,2.1-3.4,3.4-3.4c0.5,0,0.9,0.2,1.2,0.6C17.6,8.1,17.7,9,17.4,9.9
			L17.4,9.9z"/>
		<path d="M47,9.6c-0.2-0.1-0.4,0-0.5,0.2c0,0,0,0,0,0c0,0.2-0.8,3.4-3.3,3.4c-1.4,0-1.2-1.9-1-3l0.1-0.2c0,0,0,0,0-0.1l0.1-0.2
			L43.5,6h1.2c0.3,0,0.5-0.2,0.5-0.4S45,5.2,44.6,5.2h-0.9l0.8-2.8c0.1-0.2-0.1-0.4-0.3-0.5c0,0,0,0,0,0C44,1.9,43.8,2,43.8,2.2
			c0,0,0,0,0,0l-0.9,3h-1.4c-0.2,0-0.4,0.1-0.4,0.3c0,0,0,0,0,0c0,0.2,0.2,0.4,0.4,0.4c0,0,0,0,0,0h1.2l-1,3.7l0,0.2v0.1
			c-0.2,0.9-1.1,3.4-2.4,3.4c-0.3,0-0.6-0.1-0.7-0.3c-0.6-0.8-0.2-2.8,0.1-3.5l0.8-3c0.1-0.2,0-0.4-0.2-0.5c0,0-0.1,0-0.1,0
			c-0.2,0-0.4,0.1-0.5,0.3l-0.8,3c-0.1,0.2-0.1,0.5-0.2,0.7c-0.3,1-1.2,3.3-2.4,3.3c-0.3,0-0.6-0.1-0.7-0.3
			c-0.3-0.8-0.4-1.7-0.2-2.5c0.1-0.2,0.1-0.4,0.2-0.6c0-0.1,0-0.1,0-0.2l0.1-0.2l0.8-3C35.3,6.2,35.2,6,35,6c0,0,0,0,0,0
			c-0.2,0-0.4,0.1-0.5,0.3l-0.8,3c-0.1,0.3-0.2,0.6-0.2,0.9C33,11.6,32,12.3,30.8,12c0.8-1.2,1.2-2.6,1.2-4c0-0.4-0.1-0.9-0.3-1.3
			c-0.2-0.4-0.6-0.7-1-0.7c-1.3,0-2.3,1.8-2.3,3.4c-0.1,1.1,0.3,2.1,1.1,2.9c-0.4,0.6-1.1,0.9-1.8,0.9c-0.5,0-1-0.3-1.3-0.7
			c-0.5-0.8-0.6-1.8-0.3-2.8C26.6,8.3,27.6,7,29,6.4c0.2-0.1,0.3-0.3,0.2-0.5c-0.1-0.2-0.3-0.3-0.5-0.2c-1.6,0.8-2.8,2.2-3.3,4
			c-0.1,0.3-0.1,0.6-0.1,0.8c-0.4,1.1-1.2,2.9-2.3,2.9c-0.6,0-0.8-0.6-0.8-1.2c0-0.9,0.7-2.3,0.7-3.1s-0.2-1.2-1.3-1.5l-1.1-0.3
			c0.3-2.4-0.4-2.8-0.9-2.6s-0.7,0.9-0.7,1.5c0,0.7,0.3,1.3,0.8,1.7c0,0.7-0.1,1.4-0.3,2.1c-0.1,0.3-0.2,0.7,0.1,0.9
			s0.5-0.1,0.6-0.5c0.2-0.8,0.3-1.6,0.3-2.4C21.6,8.3,22,8.2,22,9c0,1-0.6,2.1-0.6,3.2c-0.1,0.9,0.5,1.7,1.3,1.8c0.1,0,0.2,0,0.3,0
			c1.1,0,1.9-1,2.4-2c0.1,0.4,0.3,0.7,0.5,1c0.5,0.6,1.2,1,1.9,1c1,0,1.9-0.5,2.5-1.4c1.1,0.4,2.2,0.1,3-0.7c0,0.5,0.2,1,0.4,1.4
			c0.3,0.4,0.8,0.7,1.4,0.6c1-0.1,1.9-0.8,2.3-1.7c0.1,0.4,0.2,0.7,0.4,1c0.3,0.4,0.8,0.7,1.4,0.6c1-0.1,1.8-0.7,2.2-1.6
			c0.1,1,0.9,1.7,1.9,1.6c0,0,0,0,0.1,0c2.8,0,4-3.5,4.1-4c0-0.2-0.1-0.3-0.3-0.4C47.1,9.6,47,9.6,47,9.6z M30,11.6
			c-0.5-0.6-0.8-1.4-0.7-2.2c0-1.2,0.8-2.6,1.5-2.6C30.9,6.9,31,7,31,7.1c0.1,0.3,0.2,0.6,0.2,0.9C31.2,9.3,30.7,10.5,30,11.6
			L30,11.6z"/>
	</g>
</g>
</svg>
